Coordinates
version=1
nRows=8
nColumns=63
inDegrees=yes

Units are S.I. units (second, meters, Newtons, ...)
If the header above contains a line with 'inDegrees', this indicates whether rotational values are in degrees (yes) or radians (no).

endheader
time	pelvis_tilt	pelvis_list	pelvis_rotation	pelvis_tx	pelvis_ty	pelvis_tz	hip_flexion_r	hip_adduction_r	hip_rotation_r	knee_angle_r	knee_angle_r_beta	ankle_angle_r	subtalar_angle_r	mtp_angle_r	hip_flexion_l	hip_adduction_l	hip_rotation_l	knee_angle_l	knee_angle_l_beta	ankle_angle_l	subtalar_angle_l	mtp_angle_l	L5_S1_Flex_Ext	L5_S1_Lat_Bending	L5_S1_axial_rotation	L4_L5_Flex_Ext	L4_L5_Lat_Bending	L4_L5_axial_rotation	L3_L4_Flex_Ext	L3_L4_Lat_Bending	L3_L4_axial_rotation	L2_L3_Flex_Ext	L2_L3_Lat_Bending	L2_L3_axial_rotation	L1_L2_Flex_Ext	L1_L2_Lat_Bending	L1_L2_axial_rotation	L1_T12_Flex_Ext	L1_T12_Lat_Bending	L1_T12_axial_rotation	Abs_r3	Abs_r2	Abs_r1	Abs_t1	Abs_t2	neck_flexion	neck_bending	neck_rotation	arm_flex_r	arm_add_r	arm_rot_r	elbow_flex_r	pro_sup_r	wrist_flex_r	wrist_dev_r	arm_flex_l	arm_add_l	arm_rot_l	elbow_flex_l	pro_sup_l	wrist_flex_l	wrist_dev_l
      0.00800000	    -42.66761327	     -2.12692555	      4.69236706	     -0.23588866	      1.03857316	     -0.02008413	     74.66406103	     -9.44141079	     -8.48690699	     45.24863963	      0.78973774	      3.18222129	      0.58986664	      0.00000000	    115.13904603	     -4.03501046	      3.57028327	    118.85412388	      2.07439579	     24.18679162	     11.96842179	      0.00000000	     -0.04609511	      0.28299310	     -1.20809412	     -0.08560323	      0.37638083	     -1.28360000	     -0.07572965	      0.68806943	     -1.28360000	     -0.05268210	      0.68806943	     -1.05708235	     -0.04280392	      0.57707954	     -0.98157647	     -0.02633874	      0.43835632	     -0.90607059	     -0.32925275	      3.20127458	     -6.71905704	      0.00000000	      0.00000000	     -0.00000000	      0.00000000	      0.00000000	     76.59104356	    -10.75642607	     30.75158265	     28.91499494	     33.49644133	      0.00000000	      6.12870493	     74.57430865	     -9.58946312	     24.39764823	     31.47850614	     38.72727295	      0.00000000	      6.12870493
      0.01700000	    -42.60838809	     -1.73716442	      4.24608825	     -0.23623058	      1.03868738	     -0.02023678	     74.41641794	     -9.23245930	     -7.47061395	     47.49935320	      0.82902011	      2.35525357	      0.74389269	      0.00000000	    116.62695893	     -4.53044470	      2.68349125	    117.77236171	      2.05551548	     25.09813732	     11.26393570	      0.00000000	     -0.04678172	      0.23642534	     -1.11737359	     -0.08687832	      0.31444570	     -1.18720944	     -0.07685768	      0.57484458	     -1.18720944	     -0.05346682	      0.57484458	     -0.97770189	     -0.04344150	      0.48211856	     -0.90786604	     -0.02673107	      0.36622285	     -0.83803019	     -0.33415712	      2.67449075	     -6.21449668	      0.00000000	      0.00000000	     -0.00000000	      0.00000000	      0.00000000	     76.55559836	    -10.79474723	     30.64426090	     28.73687110	     33.48848042	      0.00000000	      6.10575538	     74.72766486	     -9.39010841	     24.12789950	     30.95523960	     38.70166009	      0.00000000	      6.10575538
      0.02500000	    -42.65809734	     -1.69039653	      4.03367957	     -0.23664992	      1.03870444	     -0.02020932	     74.53317378	     -9.10014472	     -7.26088534	     48.43687008	      0.84538286	      2.41018212	      0.48356128	      0.00000000	    117.05003268	     -4.62402522	      2.51563179	    117.15961395	      2.04482101	     25.06962923	     11.06046928	      0.00000000	     -0.04610373	      0.22916071	     -1.08277711	     -0.08561923	      0.30478374	     -1.15045068	     -0.07574382	      0.55718135	     -1.15045068	     -0.05269195	      0.55718135	     -0.94742997	     -0.04281192	      0.46730452	     -0.87975640	     -0.02634367	      0.35496994	     -0.81208283	     -0.32931432	      2.59231178	     -6.02208143	      0.00000000	      0.00000000	     -0.00000000	      0.00000000	      0.00000000	     76.55250244	    -10.82863569	     30.57824004	     28.79678841	     33.49561061	      0.00000000	      6.09156049	     74.85003676	     -9.38225005	     24.02844311	     30.87145311	     38.70383255	      0.00000000	      6.09156049
      0.03300000	    -42.69422332	     -1.68276099	      3.82606884	     -0.23705926	      1.03876309	     -0.02030495	     74.68309632	     -8.99346632	     -7.13789091	     49.62893381	      0.86618830	      2.43054890	      0.06677828	      0.00000000	    117.44748102	     -4.64130381	      2.38283755	    116.36088554	      2.03088057	     24.99905570	     10.89703732	      0.00000000	     -0.04625341	      0.22815432	     -1.05295758	     -0.08589721	      0.30344525	     -1.11876743	     -0.07598973	      0.55473442	     -1.11876743	     -0.05286303	      0.55473442	     -0.92133789	     -0.04295092	      0.46525230	     -0.85552804	     -0.02642920	      0.35341105	     -0.78971819	     -0.33038351	      2.58092735	     -5.85623419	      0.00000000	      0.00000000	     -0.00000000	      0.00000000	      0.00000000	     76.53761637	    -10.86094406	     30.51316128	     28.87833927	     33.50762245	      0.00000000	      6.07491096	     74.93252245	     -9.36288503	     23.93274839	     30.75248825	     38.70998653	      0.00000000	      6.07491096
      0.04200000	    -42.75912010	     -1.73991840	      3.60183366	     -0.23760375	      1.03884054	     -0.02046418	     74.88734478	     -8.87501449	     -7.10810391	     51.00652907	      0.89023187	      2.51000943	     -0.42624169	      0.00000000	    117.85633038	     -4.63074979	      2.28454753	    115.38975349	      2.01393112	     24.94693098	     10.78843035	      0.00000000	     -0.04580528	      0.23621843	     -1.02212156	     -0.08506498	      0.31417051	     -1.08600416	     -0.07525349	      0.57434148	     -1.08600416	     -0.05235085	      0.57434148	     -0.89435637	     -0.04253478	      0.48169662	     -0.83047377	     -0.02617314	      0.36590234	     -0.76659117	     -0.32718253	      2.67215010	     -5.68473350	      0.00000000	      0.00000000	     -0.00000000	      0.00000000	      0.00000000	     76.57144602	    -10.90879377	     30.45739638	     28.96492106	     33.52204837	      0.00000000	      6.05962727	     75.03485458	     -9.36166768	     23.85143921	     30.67170070	     38.71822854	      0.00000000	      6.05962727
      0.05000000	    -42.79769214	     -1.75948458	      3.44255482	     -0.23812168	      1.03892662	     -0.02074633	     75.12259055	     -8.84066617	     -7.07851300	     52.62104842	      0.91841055	      2.50147427	     -1.22592629	      0.00000000	    118.16046350	     -4.53726229	      2.13231649	    114.21968394	      1.99350956	     24.89204131	     10.76299172	      0.00000000	     -0.04681928	      0.23952569	     -1.00749840	     -0.08694809	      0.31856916	     -1.07046705	     -0.07691940	      0.58238275	     -1.07046705	     -0.05350976	      0.58238275	     -0.88156110	     -0.04347639	      0.48844078	     -0.81859245	     -0.02675254	      0.37102529	     -0.75562380	     -0.33442545	      2.70956247	     -5.60340384	      0.00000000	      0.00000000	     -0.00000000	      0.00000000	      0.00000000	     76.57116712	    -10.93286182	     30.41987837	     29.06037625	     33.53675111	      0.00000000	      6.03860622	     75.12805300	     -9.35753672	     23.76190197	     30.53588462	     38.72890007	      0.00000000	      6.03860622
      0.05800000	    -42.85102092	     -1.83789679	      3.23178952	     -0.23868337	      1.03899833	     -0.02095370	     75.40929734	     -8.72641972	     -7.03329179	     54.37296472	      0.94898726	      2.61608318	     -1.92085166	      0.00000000	    118.40365230	     -4.47068096	      2.02522779	    112.92556816	      1.97092297	     24.90479037	     10.73878554	      0.00000000	     -0.04709625	      0.25041365	     -0.98191879	     -0.08746245	      0.33305016	     -1.04328872	     -0.07737443	      0.60885575	     -1.04328872	     -0.05382631	      0.60885575	     -0.85917894	     -0.04373358	      0.51064352	     -0.79780902	     -0.02691080	      0.38789075	     -0.73643909	     -0.33640382	      2.83272931	     -5.46113774	      0.00000000	      0.00000000	     -0.00000000	      0.00000000	      0.00000000	     76.59971266	    -10.98294108	     30.39782831	     29.15122185	     33.55545207	      0.00000000	      6.02023462	     75.22209658	     -9.37319949	     23.71062520	     30.50271679	     38.74507473	      0.00000000	      6.02023462
      0.06700000	    -42.93110560	     -1.73586031	      3.20672482	     -0.23934931	      1.03917621	     -0.02127348	     75.81921854	     -8.83601467	     -6.83863721	     56.31065515	      0.98280634	      2.50309926	     -3.09521642	      0.00000000	    118.45500587	     -4.33030441	      1.66846045	    111.37119483	      1.94379404	     25.02996332	     10.95032463	      0.00000000	     -0.04647584	      0.23735793	     -0.99012247	     -0.08631028	      0.31568605	     -1.05200513	     -0.07635516	      0.57711207	     -1.05200513	     -0.05311724	      0.57711207	     -0.86635716	     -0.04315746	      0.48402029	     -0.80447451	     -0.02655629	      0.36766743	     -0.74259185	     -0.33197227	      2.68504038	     -5.50676415	      0.00000000	      0.00000000	     -0.00000000	      0.00000000	      0.00000000	     76.60399287	    -11.01132743	     30.41046431	     29.27134521	     33.55852557	      0.00000000	      5.98700346	     75.36538116	     -9.39601786	     23.68596560	     30.40782469	     38.77223634	      0.00000000	      5.98700346
